<?xml version="1.0" encoding="UTF-8"?>
<!DOCTYPE svg PUBLIC "-//W3C//DTD SVG 1.1//EN" "http://www.w3.org/Graphics/SVG/1.1/DTD/svg11.dtd">
<svg xmlns="http://www.w3.org/2000/svg" version="1.1" width="936px" height="740px" style="shape-rendering:geometricPrecision; text-rendering:geometricPrecision; image-rendering:optimizeQuality; fill-rule:evenodd; clip-rule:evenodd" xmlns:xlink="http://www.w3.org/1999/xlink">
<g><path style="opacity:1" fill="#000000" d="M 438.5,65.5 C 537.321,59.8575 621.154,92.1909 690,162.5C 691.697,164.699 693.197,167.032 694.5,169.5C 689.665,170.243 684.832,170.91 680,171.5C 672.87,170.718 665.703,170.218 658.5,170C 594.2,110.457 518.2,85.4567 430.5,95C 345.001,108.46 278.501,150.96 231,222.5C 222.632,235.901 215.299,249.901 209,264.5C 205.27,265.46 201.437,265.793 197.5,265.5C 197.333,252.163 197.5,238.829 198,225.5C 251.349,132.374 331.515,79.0405 438.5,65.5 Z"/></g>
<g><path style="opacity:1" fill="#000000" d="M 102.5,207.5 C 121.167,207.5 139.833,207.5 158.5,207.5C 159.808,273.49 159.808,339.49 158.5,405.5C 145.991,405.462 133.491,405.795 121,406.5C 109.5,406 98,405.5 86.5,405C 87.1667,404 87.8333,403 88.5,402C 92.3806,400.196 96.3806,398.696 100.5,397.5C 101.174,334.129 101.84,270.795 102.5,207.5 Z"/></g>
<g><path style="opacity:1" fill="#000000" d="M 659.5,207.5 C 703.835,207.333 748.168,207.5 792.5,208C 823.961,210.798 842.794,227.631 849,258.5C 849.667,289.167 849.667,319.833 849,350.5C 846.253,380.582 830.086,398.749 800.5,405C 748.182,406.596 695.848,406.929 643.5,406C 644.257,404.488 645.257,403.154 646.5,402C 650.482,399.896 654.648,398.396 659,397.5C 659.004,334.16 659.171,270.826 659.5,207.5 Z M 717.5,265.5 C 737.169,265.333 756.836,265.5 776.5,266C 783.815,267.316 788.648,271.483 791,278.5C 791.667,298.5 791.667,318.5 791,338.5C 788.246,346.914 782.413,351.08 773.5,351C 754.79,351.82 736.123,351.653 717.5,350.5C 716.287,322.164 716.287,293.831 717.5,265.5 Z"/></g>
<g><path style="opacity:1" fill="#000000" d="M 602.5,236.5 C 610.5,236.5 618.5,236.5 626.5,236.5C 626.5,242.833 626.5,249.167 626.5,255.5C 600.72,256.31 575.053,258.477 549.5,262C 489.284,273.977 428.951,285.31 368.5,296C 348.941,298.934 329.274,300.101 309.5,299.5C 309.5,293.167 309.5,286.833 309.5,280.5C 335.319,280.132 360.986,277.965 386.5,274C 439.957,264.309 493.29,253.975 546.5,243C 565.271,240.415 583.937,238.248 602.5,236.5 Z"/></g>
<g><path style="opacity:1" fill="#000000" d="M 597.5,269.5 C 612.511,269.01 622.011,276.01 626,290.5C 626.667,328.167 626.667,365.833 626,403.5C 623.655,416.18 616.155,424.013 603.5,427C 580.165,429.834 556.831,432.667 533.5,435.5C 533.667,419.163 533.5,402.83 533,386.5C 532.489,381.645 529.989,378.145 525.5,376C 527.269,373.943 529.269,372.11 531.5,370.5C 533.763,345.535 534.096,320.535 532.5,295.5C 532.352,289.719 533.019,284.053 534.5,278.5C 555.478,274.455 576.478,271.455 597.5,269.5 Z M 580.5,299.5 C 585.232,299.378 589.898,299.878 594.5,301C 596.774,303.344 597.941,306.178 598,309.5C 598.667,336.833 598.667,364.167 598,391.5C 596.932,396.235 594.099,399.402 589.5,401C 580.551,402.662 571.551,403.828 562.5,404.5C 562.333,370.498 562.5,336.498 563,302.5C 568.925,301.459 574.758,300.459 580.5,299.5 Z"/></g>
<g><path style="opacity:1" fill="#000000" d="M 514.5,281.5 C 515.309,283.292 515.809,285.292 516,287.5C 516.779,338.186 516.112,388.852 514,439.5C 500.942,442.555 487.776,445.221 474.5,447.5C 466.647,417.772 458.481,388.105 450,358.5C 449.667,389.833 449.333,421.167 449,452.5C 442.318,454.706 435.485,456.54 428.5,458C 426.231,458.758 424.064,458.591 422,457.5C 421.667,440.833 421.333,424.167 421,407.5C 420.009,403.512 417.842,400.345 414.5,398C 416.271,395.513 418.438,393.346 421,391.5C 421.381,361.495 421.381,331.495 421,301.5C 432.426,298.881 443.926,296.381 455.5,294C 458.099,293.231 460.599,293.398 463,294.5C 470.47,322.573 478.136,350.573 486,378.5C 486.167,348.161 486.667,317.828 487.5,287.5C 496.62,285.479 505.62,283.479 514.5,281.5 Z"/></g>
<g><path style="opacity:1" fill="#000000" d="M 377.5,307.5 C 380.448,307.223 383.281,307.556 386,308.5C 394.512,358.574 403.346,408.574 412.5,458.5C 410.997,460.422 408.997,461.588 406.5,462C 399.275,463.816 391.941,464.649 384.5,464.5C 382.884,454.804 381.05,445.137 379,435.5C 377.475,434.28 375.641,433.613 373.5,433.5C 364.146,434.503 354.813,435.669 345.5,437C 343.996,438.491 343.163,440.324 343,442.5C 342.024,451.692 340.191,460.692 337.5,469.5C 336.271,470.281 334.938,470.781 333.5,471C 325.841,471.5 318.174,471.666 310.5,471.5C 313.544,455.071 316.21,438.571 318.5,422C 318.536,419.37 318.036,416.87 317,414.5C 314.555,413.023 312.388,411.19 310.5,409C 314.263,406.614 318.096,404.447 322,402.5C 326.819,372.403 332.153,342.403 338,312.5C 351.344,311.517 364.511,309.851 377.5,307.5 Z M 361.5,339.5 C 366.511,361.06 370.511,382.893 373.5,405C 372.377,406.044 371.044,406.71 369.5,407C 363.113,407.58 356.779,408.413 350.5,409.5C 352.204,385.936 355.871,362.603 361.5,339.5 Z"/></g>
<g><path style="opacity:1" fill="#000000" d="M 108.5,408.5 C 125.179,408.378 141.846,408.711 158.5,409.5C 158.5,431.5 158.5,453.5 158.5,475.5C 195.182,476.429 231.848,476.762 268.5,476.5C 268.5,494.833 268.5,513.167 268.5,531.5C 213.488,531.68 158.488,531.68 103.5,531.5C 102.674,498.208 102.174,464.875 102,431.5C 101.305,422.273 97.1387,415.106 89.5,410C 96.0133,409.828 102.347,409.328 108.5,408.5 Z"/></g>
<g><path style="opacity:1" fill="#020202" d="M 671.5,408.5 C 686.499,408.862 701.499,409.196 716.5,409.5C 717.078,418.581 717.411,427.581 717.5,436.5C 716.763,468.162 716.263,499.828 716,531.5C 697.576,532.493 679.076,532.826 660.5,532.5C 660.667,498.498 660.5,464.498 660,430.5C 658.895,422.122 655.061,415.288 648.5,410C 656.344,409.829 664.011,409.329 671.5,408.5 Z"/></g>
<g><path style="opacity:1" fill="#000000" d="M 599.5,441.5 C 608.5,441.5 617.5,441.5 626.5,441.5C 626.697,447.545 626.363,453.545 625.5,459.5C 598.3,459.753 571.3,462.253 544.5,467C 492.452,476.743 440.452,486.743 388.5,497C 363.301,500.927 337.967,502.927 312.5,503C 311.333,502.5 310.5,501.667 310,500.5C 309.412,495.472 309.578,490.472 310.5,485.5C 335.998,485.244 361.331,483.077 386.5,479C 436.524,469.462 486.524,459.795 536.5,450C 557.557,446.443 578.557,443.61 599.5,441.5 Z"/></g>
<g><path style="opacity:1" fill="#000000" d="M 239.5,573.5 C 250.993,572.341 262.659,572.174 274.5,573C 338.806,632.545 414.806,657.545 502.5,648C 562.884,639.303 615.218,614.303 659.5,573C 670.833,572.333 682.167,572.333 693.5,573C 640.345,630.413 574.678,663.746 496.5,673C 394.848,680.187 309.181,647.02 239.5,573.5 Z"/></g>
</svg>
