<?xml version="1.0" standalone="no"?>
<!DOCTYPE svg PUBLIC "-//W3C//DTD SVG 20010904//EN"
 "http://www.w3.org/TR/2001/REC-SVG-20010904/DTD/svg10.dtd">
<svg version="1.0" xmlns="http://www.w3.org/2000/svg"
 width="380.000000pt" height="380.000000pt" viewBox="0 0 380.000000 380.000000"
 preserveAspectRatio="xMidYMid meet">

<g transform="translate(0.000000,380.000000) scale(0.100000,-0.100000)"
fill="#000000" stroke="none">
<path d="M615 3278 c-33 -18 -45 -40 -45 -85 0 -60 20 -101 69 -145 103 -94
202 -5 142 127 -19 42 -82 105 -106 105 -7 0 -19 2 -27 5 -7 2 -22 0 -33 -7z"/>
<path d="M854 3252 c-66 -43 -22 -192 74 -253 52 -33 78 -36 109 -14 86 60
-27 275 -144 275 -15 0 -33 -4 -39 -8z"/>
<path d="M406 3089 c-41 -32 -37 -87 12 -140 20 -23 51 -48 69 -56 78 -32 163
-2 163 58 0 110 -163 202 -244 138z"/>
<path d="M717 2960 c-45 -36 -50 -61 -27 -143 11 -40 25 -112 30 -160 13 -124
51 -173 134 -171 42 2 44 3 124 103 18 22 61 56 96 76 34 19 68 46 76 59 31
58 5 151 -51 185 -33 20 -197 58 -294 67 -52 5 -64 3 -88 -16z"/>
<path d="M416 2839 c-20 -15 -26 -29 -26 -57 0 -131 215 -220 267 -111 49 102
-149 241 -241 168z"/>
<path d="M1647 2660 c-51 -13 -90 -34 -132 -72 -99 -87 -110 -228 -29 -377
l24 -43 -40 -46 c-95 -107 -88 -245 22 -434 83 -144 128 -156 547 -150 l183 2
-7 189 c-7 179 -7 188 11 193 15 4 25 31 48 136 l29 132 -28 53 c-38 70 -44
77 -70 77 -16 0 -27 11 -40 40 -10 23 -22 43 -27 46 -4 3 -42 -5 -84 -16 -42
-12 -78 -19 -81 -17 -2 3 8 29 22 58 l27 52 -28 59 c-15 32 -35 65 -43 72 -42
37 -228 65 -304 46z m186 -34 c33 -8 63 -18 69 -24 15 -15 -63 -158 -82 -153
-73 20 -126 7 -153 -38 -24 -40 -21 -75 7 -108 23 -27 29 -28 124 -31 97 -4
100 -3 104 18 2 19 18 27 98 51 52 16 98 29 102 29 4 0 8 -19 10 -42 3 -43 3
-43 43 -44 46 -1 46 1 19 -123 -13 -55 -21 -75 -35 -78 -18 -5 -19 -18 -19
-193 0 -186 0 -188 -22 -194 -13 -3 -118 -6 -234 -6 -160 0 -223 4 -262 15
-92 28 -146 92 -163 195 -19 118 23 200 127 251 l66 33 -39 19 c-124 63 -166
177 -107 295 58 116 190 165 347 128z"/>
<path d="M1723 2095 c-65 -28 -84 -122 -35 -175 33 -38 87 -52 165 -44 l57 7
0 113 0 114 -77 0 c-44 -1 -92 -7 -110 -15z m157 -160 c0 -24 -3 -25 -56 -25
-51 0 -55 2 -43 16 16 20 46 33 77 33 17 1 22 -5 22 -24z"/>
<path d="M3012 2538 c-11 -18 -43 -78 -71 -134 l-52 -101 20 -77 19 -77 -59
-252 c-63 -269 -65 -284 -48 -370 l12 -56 136 -32 c75 -17 140 -32 145 -33 5
0 20 44 33 99 l23 100 118 0 c106 0 122 3 174 27 79 37 142 98 181 177 31 64
32 69 31 196 0 114 -3 139 -27 208 -66 189 -140 243 -427 311 -85 20 -162 39
-171 42 -11 3 -24 -6 -37 -28z m201 -44 c84 -20 177 -48 207 -61 112 -49 189
-156 198 -274 13 -181 -83 -333 -242 -381 -65 -20 -78 -20 -161 -10 -49 6 -91
10 -93 8 -2 -2 -12 -44 -24 -92 -11 -49 -24 -93 -29 -98 -8 -9 -205 30 -221
44 -4 3 28 155 70 338 l79 332 -31 9 c-17 4 -30 13 -29 19 6 25 106 202 115
202 5 0 78 -16 161 -36z"/>
<path d="M3207 2148 c-38 -165 -39 -152 14 -162 99 -19 179 38 179 128 0 56
-31 103 -83 126 -79 36 -81 34 -110 -92z m140 -82 c10 -9 -12 -36 -38 -46 -37
-16 -43 -10 -34 30 6 30 10 32 38 26 17 -3 32 -8 34 -10z"/>
<path d="M300 2426 l-115 -31 -3 -155 -2 -155 54 -58 54 -58 67 -262 c37 -144
73 -269 79 -278 6 -9 28 -34 48 -57 l37 -41 203 52 203 52 1 150 c0 159 1 156
-57 224 l-37 42 -66 -17 c-37 -9 -68 -15 -70 -13 -2 2 -31 117 -66 254 -35
138 -70 262 -79 276 -33 54 -91 109 -113 108 -13 -1 -75 -16 -138 -33z m150
-9 c0 -15 160 -638 166 -648 2 -4 46 4 96 17 51 13 94 24 96 24 1 0 1 -55 0
-122 l-3 -123 -165 -42 c-91 -24 -171 -42 -179 -40 -14 2 -23 32 -132 455
l-52 202 -33 -6 -34 -6 0 121 0 120 43 11 c23 6 71 20 107 30 80 23 90 23 90
7z"/>
<path d="M2482 1313 c-22 -9 -52 -81 -52 -125 1 -82 53 -158 108 -158 76 0
118 107 83 212 -20 62 -83 94 -139 71z"/>
<path d="M2765 1282 c-64 -14 -115 -94 -115 -181 0 -45 4 -57 30 -83 25 -24
36 -29 58 -24 43 11 75 39 100 89 52 103 10 217 -73 199z"/>
<path d="M2280 1140 c-61 -61 -55 -199 11 -255 73 -61 152 -2 152 113 0 62
-11 92 -51 135 -32 34 -82 37 -112 7z"/>
<path d="M2906 1069 c-83 -23 -139 -160 -105 -258 30 -84 127 -61 175 43 54
117 15 239 -70 215z"/>
<path d="M2552 983 c-12 -10 -45 -47 -74 -83 -29 -36 -74 -85 -100 -109 -56
-51 -73 -97 -57 -153 16 -60 51 -78 153 -78 71 0 98 -5 148 -26 72 -30 117
-28 156 8 30 28 52 77 52 117 0 39 -111 260 -154 305 -38 41 -89 49 -124 19z"/>
</g>
</svg>
